HIERARCHY
ROOT Hips
{
	OFFSET 0.00000 0.00000 0.00000
	CHANNELS 6 Xposition Yposition Zposition Zrotation Yrotation Xrotation 
	JOINT LHipJoint
	{
		OFFSET 0 0 0
		CHANNELS 3 Zrotation Yrotation Xrotation
		JOINT LeftUpLeg
		{
			OFFSET 1.85590 -1.73949 0.84976
			CHANNELS 3 Zrotation Yrotation Xrotation
			JOINT LeftLeg
			{
				OFFSET 2.36836 -6.50702 0.00000
				CHANNELS 3 Zrotation Yrotation Xrotation
				JOINT LeftFoot
				{
					OFFSET 2.53268 -6.95849 0.00000
					CHANNELS 3 Zrotation Yrotation Xrotation
					JOINT LeftToeBase
					{
						OFFSET 0.15935 -0.43781 1.94506
						CHANNELS 3 Zrotation Yrotation Xrotation
						End Site
						{
							OFFSET 0.00000 -0.00000 1.00661
						}
					}
				}
			}
		}
	}
	JOINT RHipJoint
	{
		OFFSET 0 0 0
		CHANNELS 3 Zrotation Yrotation Xrotation
		JOINT RightUpLeg
		{
			OFFSET -1.68297 -1.73949 0.84976
			CHANNELS 3 Zrotation Yrotation Xrotation
			JOINT RightLeg
			{
				OFFSET -2.44709 -6.72334 0.00000
				CHANNELS 3 Zrotation Yrotation Xrotation
				JOINT RightFoot
				{
					OFFSET -2.43843 -6.69953 0.00000
					CHANNELS 3 Zrotation Yrotation Xrotation
					JOINT RightToeBase
					{
						OFFSET -0.20854 -0.57295 2.02172
						CHANNELS 3 Zrotation Yrotation Xrotation
						End Site
						{
							OFFSET -0.00000 -0.00000 1.05594
						}
					}
				}
			}
		}
	}
	JOINT LowerBack
	{
		OFFSET 0 0 0
		CHANNELS 3 Zrotation Yrotation Xrotation
		JOINT Spine
		{
			OFFSET -0.01560 2.23971 -0.03712
			CHANNELS 3 Zrotation Yrotation Xrotation
			JOINT Spine1
			{
				OFFSET 0.05490 2.19225 -0.19086
				CHANNELS 3 Zrotation Yrotation Xrotation
				JOINT Neck
				{
					OFFSET 0 0 0
					CHANNELS 3 Zrotation Yrotation Xrotation
					JOINT Neck1
					{
						OFFSET -0.12403 1.43168 0.27585
						CHANNELS 3 Zrotation Yrotation Xrotation
						JOINT Head
						{
							OFFSET 0.17855 1.46173 -0.32578
							CHANNELS 3 Zrotation Yrotation Xrotation
							End Site
							{
								OFFSET 0.07217 1.51590 -0.14537
							}
						}
					}
				}
				JOINT LeftShoulder
				{
					OFFSET 0 0 0
					CHANNELS 3 Zrotation Yrotation Xrotation
					JOINT LeftArm
					{
						OFFSET 3.27650 0.85634 0.05396
						CHANNELS 3 Zrotation Yrotation Xrotation
						JOINT LeftForeArm
						{
							OFFSET 4.96755 -0.00000 0.00000
							CHANNELS 3 Zrotation Yrotation Xrotation
							JOINT LeftHand
							{
								OFFSET 3.35751 -0.00000 0.00000
								CHANNELS 3 Zrotation Yrotation Xrotation
								JOINT LeftFingerBase
								{
									OFFSET 0 0 0
									CHANNELS 3 Zrotation Yrotation Xrotation
									JOINT LeftHandIndex1
									{
										OFFSET 0.79697 -0.00000 0.00000
										CHANNELS 3 Zrotation Yrotation Xrotation
										End Site
										{
											OFFSET 0.64254 -0.00000 0.00000
										}
									}
								}
								JOINT LThumb
								{
									OFFSET 0 0 0
									CHANNELS 3 Zrotation Yrotation Xrotation
									End Site
									{
										OFFSET 0.65235 -0.00000 0.65235
									}
								}
							}
						}
					}
				}
				JOINT RightShoulder
				{
					OFFSET 0 0 0
					CHANNELS 3 Zrotation Yrotation Xrotation
					JOINT RightArm
					{
						OFFSET -3.24434 1.02034 0.34688
						CHANNELS 3 Zrotation Yrotation Xrotation
						JOINT RightForeArm
						{
							OFFSET -5.21859 -0.00000 -0.00000
							CHANNELS 3 Zrotation Yrotation Xrotation
							JOINT RightHand
							{
								OFFSET -3.36504 -0.00000 0.00000
								CHANNELS 3 Zrotation Yrotation Xrotation
								JOINT RightFingerBase
								{
									OFFSET 0 0 0
									CHANNELS 3 Zrotation Yrotation Xrotation
									JOINT RightHandIndex1
									{
										OFFSET -0.62044 -0.00000 0.00000
										CHANNELS 3 Zrotation Yrotation Xrotation
										End Site
										{
											OFFSET -0.50022 -0.00000 0.00000
										}
									}
								}
								JOINT RThumb
								{
									OFFSET 0 0 0
									CHANNELS 3 Zrotation Yrotation Xrotation
									End Site
									{
										OFFSET -0.50786 -0.00000 0.50786
									}
								}
							}
						}
					}
				}
			}
		}
	}
}
MOTION
Frames: 6
Frame Time: .0083333
8.8534 17.0863 -0.0001 -2.7602 3.4738 5.3573 0.0000 0.0000 0.0000 -15.9439 2.3398 -24.8004 12.1705 18.4618 66.5283 -0.1057 10.2688 -12.7892 0.1954 -2.8466 -7.8519 0.0000 0.0000 0.0000 28.6734 1.5218 -13.7620 -1.5843 -7.9404 22.5333 -0.0530 10.4668 -8.1558 -0.0890 1.9239 -5.2955 -1.1579 -1.0164 -5.3516 3.3503 -1.3564 -1.3188 4.0161 -0.6856 1.7508 -12.0129 -4.0667 -22.8128 12.4204 -5.2220 26.4806 6.0524 -1.8530 13.4089 0.0000 -0.0000 0.0000 -87.8069 -3.9213 44.3170 14.1781 -22.9888 -2.8973 -0.0000 0.0000 -0.2941 12.4117 -21.3429 -4.5794 -7.1250 0.0000 -0.0000 -10.3056 8.4572 8.8257 0.0000 -0.0000 0.0000 81.6864 -6.7656 22.8052 -9.9423 16.6493 -1.4584 0.0000 0.0000 0.4725 -28.6053 -22.1502 11.6188 7.1250 -0.0000 -0.0000 0.2865 -54.8555 -0.0694
8.8495 17.0804 0.1703 -3.0715 3.2337 5.4417 0.0000 0.0000 0.0000 -15.7611 1.8144 -26.5437 12.1304 18.4452 66.4017 -0.0527 9.9442 -13.2606 0.2039 -2.9077 -8.0218 0.0000 0.0000 0.0000 29.1628 1.4207 -13.0267 -1.5536 -7.8668 22.3103 -0.0890 10.4962 -8.6993 -0.1069 2.1083 -5.8049 -0.7803 -0.7618 -5.2619 3.3564 -1.0352 -1.3626 3.8320 -0.5214 1.6239 -12.3037 -4.1698 -22.4482 12.6587 -5.3537 26.1932 6.1589 -1.9178 13.2536 0.0000 -0.0000 0.0000 -87.7417 -3.0560 43.8906 13.7101 -22.3187 -2.7170 -0.0000 -0.0000 0.0679 12.1614 -21.0610 -4.4283 -7.1250 0.0000 -0.0000 -10.4569 8.7653 8.8947 0.0000 -0.0000 0.0000 81.4716 -6.1048 25.5522 -10.3267 17.2489 -1.5704 0.0000 -0.0000 -2.4012 -29.8275 -24.3173 13.2841 7.1250 -0.0000 -0.0000 -0.4931 -57.4934 0.1509
8.8446 17.0567 0.3367 -3.2545 2.9018 5.6730 0.0000 0.0000 0.0000 -15.7974 1.4426 -28.2868 12.0483 18.4110 66.1419 -0.0100 9.7104 -13.6635 0.1244 -2.2736 -6.2625 0.0000 0.0000 0.0000 29.5273 1.3862 -12.6364 -1.5361 -7.8244 22.1820 -0.1351 10.3947 -9.2850 -0.2577 3.2658 -9.0196 -0.5550 -0.5491 -5.2833 3.3375 -0.7611 -1.4473 3.7032 -0.3816 1.5255 -12.4302 -4.2000 -22.1276 12.7773 -5.3940 25.8492 6.1996 -1.9395 13.0610 -0.0000 0.0000 0.0000 -87.6887 -2.1119 42.9203 13.3071 -21.7355 -2.5659 -0.0000 -0.0000 0.6875 11.4811 -20.8824 -4.1409 -7.1250 0.0000 -0.0000 -10.8844 9.0138 9.2171 -0.0000 0.0000 0.0000 81.1958 -5.5234 27.5891 -10.8222 18.0153 -1.7205 0.0000 -0.0000 -3.1057 -29.4523 -25.6743 13.7473 7.1250 -0.0000 -0.0000 0.3433 -58.8808 -0.1165
8.8481 17.0555 0.5175 -3.3638 2.4866 5.8617 0.0000 0.0000 0.0000 -15.8072 0.8924 -30.0479 11.8761 18.3378 65.5956 -0.0491 9.8977 -13.2538 0.0709 -1.7183 -4.7278 0.0000 0.0000 0.0000 29.7337 1.1735 -12.2389 -1.5263 -7.8006 22.1101 -0.1657 10.4079 -9.7052 -0.3866 3.9929 -11.0567 -0.3893 -0.3776 -5.3128 3.3176 -0.5407 -1.4646 3.6032 -0.2706 1.5073 -12.1916 -4.1765 -22.4749 12.4538 -5.3169 25.9778 6.0471 -1.9135 13.1535 -0.0000 0.0000 0.0000 -87.6981 -1.1978 41.5758 12.8500 -21.0671 -2.3991 -0.0000 -0.0000 1.3634 9.6725 -20.2106 -3.3698 -7.1250 0.0000 -0.0000 -12.0265 9.8528 10.0204 -0.0000 0.0000 0.0000 80.7949 -4.8634 30.0393 -11.2807 18.7172 -1.8650 0.0000 -0.0000 -3.8562 -29.9845 -22.3314 12.3656 7.1250 -0.0000 -0.0000 -1.1646 -55.3483 0.2959
8.8550 17.0470 0.7100 -3.5106 2.0295 5.8706 0.0000 0.0000 0.0000 -15.8413 0.6490 -31.3152 11.6153 18.2232 64.7640 0.0046 9.5800 -13.7273 0.2304 -3.0898 -8.5288 0.0000 0.0000 0.0000 29.9353 0.8236 -11.5670 -1.5218 -7.7895 22.0765 -0.1902 10.8547 -10.2479 -0.4242 4.1802 -11.5841 -0.1844 -0.2083 -5.3033 3.3275 -0.3276 -1.4038 3.5117 -0.1645 1.5496 -12.0887 -4.1484 -22.8445 12.3051 -5.2362 26.1212 5.9935 -1.8774 13.2675 0.0000 -0.0000 0.0000 -87.7762 -0.2795 40.0455 12.2864 -20.2327 -2.2003 -0.0000 -0.0000 2.5228 7.3529 -19.2946 -2.4415 -7.1250 0.0000 -0.0000 -13.5121 10.9446 11.0199 0.0000 -0.0000 0.0000 80.2937 -4.1548 32.9047 -11.7905 19.4897 -2.0318 0.0000 -0.0000 -5.8122 -31.0195 -19.6070 11.4082 7.1250 -0.0000 -0.0000 -2.7808 -52.5296 0.5157
8.8585 17.0366 0.8957 -3.8383 1.7192 5.8772 0.0000 0.0000 0.0000 -15.6332 0.2968 -32.5119 11.2737 18.0664 63.6673 0.1568 8.8815 -15.2052 0.3154 -3.6105 -9.9832 0.0000 0.0000 0.0000 30.3688 0.4898 -10.8213 -1.5041 -7.7461 21.9455 -0.2296 11.3992 -11.0001 -0.3882 4.0007 -11.0788 0.2467 -0.0289 -5.2059 3.3563 -0.1080 -1.4620 3.3117 -0.0523 1.4209 -12.3102 -4.1790 -22.5251 12.5473 -5.2887 25.8735 6.1065 -1.8988 13.1238 0.0000 -0.0000 0.0000 -87.7152 0.9342 38.8345 11.8455 -19.5725 -2.0502 -0.0000 -0.0000 3.9367 6.6865 -19.1435 -2.2017 -7.1250 0.0000 -0.0000 -13.9408 11.1414 11.3337 0.0000 -0.0000 0.0000 79.8540 -3.8487 35.1570 -12.7165 20.8705 -2.3513 0.0000 -0.0000 -7.5307 -31.1851 -20.8836 12.1755 7.1250 -0.0000 -0.0000 -2.7513 -53.9948 0.6087
